# xmcd CD database file
#
# Track frame offsets:
#	150
#	16990
#	29845
#	46365
#	64060
#	82160
#	94290
#	104570
#	115710
#	130890
#	150347
#	173042
#	205202
#	236632
#	264002
#	300262
#
# Disc length: 4379 seconds
#
# Revision: 0
# Processed by: cddbd v1.5.2PL0 Copyright (c) Steve Scherf et al.
# Submitted via: CDex 1.51
#
DISCID=ce111910
DTITLE=Grant Green - Organ Trio And Quartet (1960-67)
DYEAR=1900
DGENRE=Jazz
TTITLE0=Grant Green - Dig A Little Deeper
TTITLE1=Grant Green - We Don't Know
TTITLE2=Grant Green - Caramu
TTITLE3=Grant Green - Ruby
TTITLE4=Grant Green - Gigi Blues
TTITLE5=Grant Green - Space Flight
TTITLE6=Grant Green - Mad Lad
TTITLE7=Grant Green - Funky Blues
TTITLE8=Grant Green - Big Willis
TTITLE9=Grant Green - My Babe
TTITLE10=Grant Green - Iron City
TTITLE11=Grant Green - Samba De Orpheus
TTITLE12=Grant Green - Old Man Moses
TTITLE13=Grant Green - High Heeled Sneakers
TTITLE14=Grant Green - Motherless Child
TTITLE15=Grant Green - Work Song
EXTD=
EXTT0=
EXTT1=
EXTT2=
EXTT3=
EXTT4=
EXTT5=
EXTT6=
EXTT7=
EXTT8=
EXTT9=
EXTT10=
EXTT11=
EXTT12=
EXTT13=
EXTT14=
EXTT15=
PLAYORDER=
